<svg width="24" height="24" viewBox="0 0 24 24" fill="none" xmlns="http://www.w3.org/2000/svg">
<path d="M9.7334 20.2466C9.7334 20.6645 9.39577 21 8.9834 21C8.57103 21 8.2334 20.6645 8.2334 20.2466C8.2334 19.8286 8.57103 19.4932 8.9834 19.4932C9.39577 19.4932 9.7334 19.8286 9.7334 20.2466Z" fill="white" stroke="white" stroke-width="2"/>
<path d="M19.1289 20.2466C19.1289 20.6645 18.7913 21 18.3789 21C17.9665 21 17.6289 20.6645 17.6289 20.2466C17.6289 19.8286 17.9665 19.4932 18.3789 19.4932C18.7913 19.4932 19.1289 19.8286 19.1289 20.2466Z" fill="white" stroke="white" stroke-width="2"/>
<path d="M5.39548 6.10257L4.7655 3H2" stroke="white" stroke-width="2" stroke-linecap="round" stroke-linejoin="round"/>
<path d="M5.39648 6.10077L7.12626 14.5633C7.21168 15.0126 7.45726 15.4085 7.80962 15.6973C8.16198 15.9862 8.61044 16.136 9.06958 16.1253H18.5086C18.9677 16.1253 19.4055 15.9862 19.7685 15.6973C20.1209 15.4085 20.3665 15.0126 20.4519 14.5633L22.0002 6.10077H5.39648Z" fill="white" stroke="white" stroke-width="2" stroke-linecap="round" stroke-linejoin="round"/>
</svg>
