<svg width="20" height="21" viewBox="0 0 20 21" fill="none" xmlns="http://www.w3.org/2000/svg">
<path fill-rule="evenodd" clip-rule="evenodd" d="M10 20.0898C15.5228 20.0898 20 15.6127 20 10.0898C20 4.567 15.5228 0.0898438 10 0.0898438C4.47715 0.0898438 0 4.567 0 10.0898C0 15.6127 4.47715 20.0898 10 20.0898ZM10 9.08984C11.6569 9.08984 13 7.7467 13 6.08984C13 4.43299 11.6569 3.08984 10 3.08984C8.34315 3.08984 7 4.43299 7 6.08984C7 7.7467 8.34315 9.08984 10 9.08984ZM15.27 15.4298C15.76 14.9498 16.01 14.2798 16.01 13.5898C16.01 11.5998 12.02 10.5898 10.01 10.5898C8.00001 10.5898 4.01001 11.5898 4.01001 13.5898C4.01001 14.2798 4.26001 14.9498 4.75001 15.4298C6.02001 16.6798 7.73001 17.4798 9.63001 17.5798H10.4C12.29 17.4898 14 16.6798 15.27 15.4298Z" fill="#00AEEF"/>
</svg>
