<svg width="24" height="24" viewBox="0 0 24 24" fill="none" xmlns="http://www.w3.org/2000/svg">
<circle opacity="0.7" cx="11.625" cy="11.5416" r="10.0625" stroke="black" stroke-width="2.875"/>
<path opacity="0.7" d="M11.8169 8.84619C11.31 8.84619 10.8923 8.72656 10.5638 8.48728C10.2353 8.24801 10.071 7.9033 10.071 7.45314C10.071 7.00299 10.2353 6.66233 10.5638 6.43117C10.8923 6.20001 11.314 6.08443 11.8291 6.08443C12.3441 6.08443 12.7618 6.19798 13.0822 6.42509C13.4067 6.65219 13.5689 6.99488 13.5689 7.45314C13.5689 7.9033 13.4026 8.24801 13.07 8.48728C12.7416 8.72656 12.3238 8.84619 11.8169 8.84619ZM14.0555 14.169V16H9.57222V14.169H10.357V11.3646H9.57222V9.86816L13.2708 9.48492V14.169H14.0555Z" fill="black"/>
</svg>
