<?xml version="1.0" encoding="UTF-8"?>
<svg width="16px" height="29px" viewBox="0 0 16 29" version="1.1" xmlns="http://www.w3.org/2000/svg" xmlns:xlink="http://www.w3.org/1999/xlink">
    <!-- Generator: sketchtool 49.2 (51160) - http://www.bohemiancoding.com/sketch -->
    <title>9B41E2F8-C091-4CDA-AECF-A2438356B494</title>
    <desc>Created with sketchtool.</desc>
    <defs></defs>
    <g id="Symbols" stroke="none" stroke-width="1" fill="none" fill-rule="evenodd">
        <g id="home-desktop-2" transform="translate(-1237.000000, -370.000000)">
            <g id="Group-5">
                <g id="hero" transform="translate(4.000000, 155.000000)">
                    <g id="home-desktop-icon-arrow-right-home-hero" transform="translate(1241.000000, 230.000000) rotate(180.000000) translate(-1241.000000, -230.000000) translate(1216.000000, 205.000000)">
                        <rect id="Rectangle" fill-opacity="0" fill="#FFFFFF" x="0" y="0" width="50" height="50" rx="25"></rect>
                        <path d="M23,17 L23,35 C23,35.5522847 22.5522847,36 22,36 C21.4477153,36 21,35.5522847 21,35 L21,16 C21,15.4477153 21.4477153,15 22,15 L41,15 C41.5522847,15 42,15.4477153 42,16 C42,16.5522847 41.5522847,17 41,17 L23,17 Z" id="icon-arrow-right-home-hero" fill="#000000" opacity="0.4" style="mix-blend-mode: multiply;" transform="translate(31.500000, 25.500000) rotate(-45.000000) translate(-31.500000, -25.500000) "></path>
                    </g>
                </g>
            </g>
        </g>
    </g>
</svg>