<svg width="20" height="20" viewBox="0 0 20 20" fill="none" xmlns="http://www.w3.org/2000/svg">
<path fill-rule="evenodd" clip-rule="evenodd" d="M19.9435 15.4586C20.0334 15.7785 20.0034 16.1085 19.9435 16.2685C19.8335 16.5184 19.6136 16.8584 19.6136 16.8584L18.0743 19.0582C18.0743 19.0582 17.6045 19.8081 16.6149 19.998C16.6149 19.998 13.1465 20.158 9.38816 17.6683C9.38816 17.6683 7.499 16.4685 5.90971 15.0186C5.86972 14.9886 5.83974 14.9486 5.79976 14.9186C4.01055 13.2688 2.3213 10.6091 2.3213 10.6091C-0.157596 6.84956 0.00233301 3.37996 0.00233301 3.37996C0.182253 2.39008 0.941915 1.92013 0.941915 1.92013L3.15093 0.39031C3.15093 0.39031 3.50078 0.170335 3.74067 0.0603477C3.9006 -0.00964423 4.22046 -0.0296419 4.54032 0.0603477C4.94014 0.170335 5.26999 0.440304 5.4699 0.810261L7.53898 4.7798C7.62894 4.93978 7.67892 5.12976 7.68892 5.30974C7.70891 5.7097 7.64893 5.90967 7.41904 6.22964L7.2791 6.38962L5.26999 7.96944C5.26999 7.96944 6.18958 9.80922 7.79887 11.549L7.9388 11.689C9.79798 13.5988 12.037 14.7287 12.037 14.7287L13.6263 12.7289L13.7862 12.5889C14.1061 12.3589 14.306 12.2989 14.7058 12.3189C14.8957 12.3189 15.0756 12.3789 15.2356 12.4689L19.2138 14.5487C19.5836 14.7387 19.8535 15.0786 19.9635 15.4786L19.9435 15.4586Z" fill="#00AEEF"/>
</svg>
